<?xml version="1.0" standalone="no"?>
<!DOCTYPE svg PUBLIC "-//W3C//DTD SVG 20010904//EN"
 "http://www.w3.org/TR/2001/REC-SVG-20010904/DTD/svg10.dtd">
<svg version="1.0" xmlns="http://www.w3.org/2000/svg"
 width="800.000000pt" height="800.000000pt" viewBox="0 0 800.000000 800.000000"
 preserveAspectRatio="xMidYMid meet">

<g transform="translate(0.000000,800.000000) scale(0.100000,-0.100000)"
fill="#000000" stroke="none">
<path d="M2675 7880 c-172 -44 -287 -123 -431 -296 -320 -383 -478 -487 -783
-513 -344 -30 -558 -140 -648 -331 -46 -98 -53 -143 -63 -415 -10 -268 -18
-322 -69 -430 -37 -78 -82 -129 -196 -220 -107 -87 -257 -241 -309 -319 -52
-79 -77 -149 -83 -241 -7 -103 10 -191 87 -437 77 -245 94 -329 87 -432 -6
-94 -33 -174 -84 -249 -20 -28 -51 -74 -70 -101 -69 -101 -81 -238 -31 -361
51 -126 183 -312 337 -477 59 -63 80 -96 126 -194 30 -66 55 -124 55 -130 0
-21 53 -142 132 -299 408 -821 1019 -1435 1843 -1855 411 -209 810 -344 1220
-413 235 -40 388 -51 690 -51 233 0 308 4 447 22 438 59 840 180 1156 349 48
25 121 63 162 84 41 22 113 67 160 101 47 33 106 74 132 89 133 79 409 324
587 521 269 298 440 542 579 829 67 137 127 298 120 319 -2 5 -64 -37 -138
-93 -361 -273 -701 -456 -1000 -537 -194 -53 -259 -50 -142 6 142 69 350 210
490 331 90 78 253 243 290 293 15 19 40 51 57 70 44 51 183 254 215 315 15 29
44 81 63 116 47 83 141 309 166 396 11 37 29 100 40 138 34 112 71 358 78 510
6 142 -7 319 -30 425 l-12 55 -127 -241 c-175 -336 -304 -529 -474 -714 -87
-95 -142 -142 -155 -134 -11 6 7 42 67 135 48 74 160 302 198 404 32 84 92
304 111 407 23 123 34 361 24 519 -22 358 -141 666 -359 927 -29 35 -54 61
-56 59 -2 -2 5 -30 16 -63 151 -438 141 -947 -31 -1489 -220 -693 -627 -1269
-1208 -1714 -59 -45 -86 -71 -75 -72 11 0 60 -4 109 -9 283 -26 673 71 947
237 59 36 113 63 119 61 22 -7 -180 -199 -341 -325 -360 -279 -804 -504 -1205
-608 -177 -46 -267 -62 -420 -75 -201 -17 -192 -12 -131 -69 279 -257 623
-409 995 -437 90 -7 124 -19 79 -28 -245 -52 -531 -67 -853 -46 -202 13 -399
60 -643 155 -124 48 -129 51 -374 180 -313 166 -722 485 -1024 799 l-144 150
0 -65 c0 -68 35 -228 70 -319 74 -191 206 -387 390 -580 76 -79 98 -110 80
-110 -27 0 -144 58 -241 119 -117 75 -421 314 -485 382 -161 170 -317 409
-418 636 -117 266 -171 506 -183 805 -7 198 15 445 58 633 74 326 181 537 392
782 85 97 140 148 302 279 138 112 423 254 672 335 l162 53 53 -19 c29 -10
125 -51 213 -90 88 -40 178 -78 200 -85 22 -7 54 -20 70 -28 41 -21 494 -180
575 -202 36 -10 76 -23 90 -29 44 -19 422 -109 504 -120 43 -6 82 -14 87 -17
10 -6 113 -19 284 -37 157 -16 464 -12 580 8 273 47 467 162 551 327 56 110
71 293 35 423 -27 95 -100 267 -151 354 -155 266 -527 650 -865 893 -326 234
-735 454 -1035 555 -41 14 -91 32 -111 40 -59 24 -326 90 -474 117 -169 31
-314 45 -525 51 -58 1 -112 3 -121 4 -9 0 -47 28 -85 62 -137 121 -277 198
-446 245 -78 22 -119 27 -258 30 -141 3 -176 1 -245 -16z m2372 -1596 c47 -27
63 -64 63 -142 0 -65 -23 -105 -78 -134 -65 -35 -106 -41 -150 -22 -136 56
-148 227 -22 312 30 21 43 23 90 18 30 -4 73 -18 97 -32z m2037 -3469 c-25
-19 -40 -19 -24 0 7 8 20 15 28 15 13 0 12 -3 -4 -15z"/>
</g>
</svg>
